<?xml version="1.0" encoding="iso-8859-1"?>
<!-- Generator: Adobe Illustrator 16.0.4, SVG Export Plug-In . SVG Version: 6.00 Build 0)  -->
<!DOCTYPE svg PUBLIC "-//W3C//DTD SVG 1.1//EN" "http://www.w3.org/Graphics/SVG/1.1/DTD/svg11.dtd">
<svg version="1.1" id="&#x30EC;&#x30A4;&#x30E4;&#x30FC;_1"
	 xmlns="http://www.w3.org/2000/svg" xmlns:xlink="http://www.w3.org/1999/xlink" x="0px" y="0px" width="192px" height="192px"
	 viewBox="0 0 192 192" style="enable-background:new 0 0 192 192;" xml:space="preserve">
<g>
	<defs>
		<rect id="SVGID_1_" width="192" height="192"/>
	</defs>
	<clipPath id="SVGID_2_">
		<use xlink:href="#SVGID_1_"  style="overflow:visible;"/>
	</clipPath>
	<path style="clip-path:url(#SVGID_2_);fill:#FFFFFF;" d="M180.322,53.363c-2.024-7.622-7.988-13.624-15.561-15.661
		C151.037,34,96,34,96,34s-55.037,0-68.762,3.702c-7.572,2.037-13.536,8.039-15.56,15.661C8,67.177,8,96,8,96s0,28.822,3.678,42.637
		c2.024,7.622,7.988,13.624,15.56,15.662C40.963,158,96,158,96,158s55.037,0,68.762-3.701c7.572-2.038,13.536-8.04,15.561-15.662
		C184,124.822,184,96,184,96S184,67.177,180.322,53.363 M78,122.169V69.831l46,26.17L78,122.169z"/>
</g>
</svg>
